<svg xmlns="http://www.w3.org/2000/svg" xmlns:xlink="http://www.w3.org/1999/xlink" version="1.1" width="641.25pt" height="426pt" viewBox="0 0 641.25 426">
<g>
<path d="M272.359 407.977V38.188H270.641V407.977ZM281.812 41.625 271.5 21 261.188 41.625ZM281.812 41.625"/>
<path d="M271.508 408.582 602.824 405.996 602.812 404.277 271.492 406.863ZM599.465 415.477 620.008 405.004 599.301 394.852ZM599.465 415.477"/>
<path d="M359.625 109.875H524.625V301.875H359.625Z" fill="#f8cbad"/>
<path stroke-width="3.437498" stroke-linecap="butt" stroke-miterlimit="8" stroke-linejoin="miter" fill="none" stroke="#000000" d="M359.625 109.875H524.625V301.875H359.625Z"/>
<path d="M443.203 187.719 439.344 205.164C441.27 205.59 442.98 205.801 444.48 205.801 446.949 205.801 448.98 205.344 450.555 204.422 452.137 203.496 453.285 202.266 453.988 200.723 454.703 199.184 455.055 197.453 455.055 195.523 455.055 192.996 454.223 191.062 452.566 189.719 450.898 188.387 447.984 187.719 443.812 187.719ZM441.441 184.344H443.047C446.309 184.344 448.934 184.5 450.906 184.816 452.879 185.129 454.613 185.691 456.105 186.516 457.598 187.336 458.723 188.422 459.48 189.781 460.238 191.145 460.621 192.734 460.621 194.559 460.621 196.059 460.379 197.461 459.906 198.781 459.426 200.102 458.766 201.316 457.914 202.426 457.066 203.543 456.023 204.539 454.801 205.426 453.57 206.301 452.363 206.977 451.164 207.441 450.398 207.727 449.453 207.969 448.344 208.172 448.926 209.953 449.609 211.883 450.391 213.945 451.172 216.016 451.801 217.551 452.273 218.551 452.754 219.555 453.188 220.363 453.586 220.988 453.977 221.602 454.379 222.047 454.785 222.324 455.191 222.594 455.656 222.734 456.18 222.734 457.035 222.734 457.793 222.512 458.461 222.059 459.129 221.617 460.125 220.695 461.438 219.301L463.23 220.906C461.656 222.809 460.133 224.219 458.672 225.137 457.215 226.043 455.551 226.5 453.691 226.5 452.512 226.5 451.516 226.305 450.699 225.906 449.871 225.512 449.184 224.977 448.629 224.297 448.074 223.621 447.57 222.758 447.121 221.715 446.676 220.672 446.031 218.941 445.176 216.531 444.328 214.117 443.477 211.492 442.629 208.656 441.414 208.656 440.07 208.566 438.613 208.387L437.211 215.379C436.914 216.938 436.539 218.234 436.102 219.27 435.668 220.297 435.188 221.176 434.664 221.879 434.137 222.594 433.559 223.199 432.945 223.703 432.324 224.211 431.559 224.707 430.637 225.195 429.711 225.684 428.812 226.02 427.926 226.215 427.051 226.402 426.129 226.5 425.176 226.5 423.637 226.5 422.258 226.074 421.043 225.211 419.828 224.348 418.746 223.035 417.797 221.273L421.926 218.902C422.773 220.582 423.602 221.828 424.387 222.621 425.176 223.426 426.051 223.828 427.004 223.828 427.484 223.828 427.973 223.734 428.461 223.539 428.949 223.344 429.391 222.969 429.781 222.398 430.176 221.828 430.523 221.031 430.816 219.996 431.109 218.961 431.496 217.289 431.984 214.98L435.906 196.012C436.207 194.594 436.637 193.191 437.168 191.805 437.707 190.418 438.336 189.172 439.066 188.086L439.004 187.777C434.488 187.777 431.25 188.191 429.301 189.023 427.344 189.855 426.359 191.273 426.359 193.281 426.359 194.309 426.719 195.57 427.426 197.047L422.746 198.871C422.301 198.141 421.98 197.461 421.785 196.824 421.598 196.184 421.5 195.48 421.5 194.707 421.5 193.836 421.754 192.969 422.258 192.09 422.887 191.016 423.906 189.922 425.332 188.797 426.75 187.672 428.211 186.773 429.719 186.09 431.234 185.414 432.914 184.941 434.781 184.68 436.281 184.453 438.504 184.344 441.441 184.344ZM441.441 184.344" fill-rule="evenodd"/>
<path stroke-width="3.437498" stroke-linecap="butt" stroke-miterlimit="8" stroke-linejoin="miter" fill="none" stroke="#172c51" d="M103.875 82.125C103.875 72.188 111.938 64.125 121.875 64.125 131.812 64.125 139.875 72.188 139.875 82.125 139.875 92.062 131.812 100.125 121.875 100.125 111.938 100.125 103.875 92.062 103.875 82.125ZM103.875 82.125"/>
<path stroke-width="3.437498" stroke-linecap="butt" stroke-miterlimit="8" stroke-linejoin="miter" fill="none" stroke="#172c51" d="M54.375 171C54.375 161.266 62.438 153.375 72.375 153.375 82.312 153.375 90.375 161.266 90.375 171 90.375 180.734 82.312 188.625 72.375 188.625 62.438 188.625 54.375 180.734 54.375 171ZM54.375 171"/>
<path stroke-width="3.437498" stroke-linecap="butt" stroke-miterlimit="8" stroke-linejoin="miter" fill="none" stroke="#172c51" d="M1.875 260.25C1.875 250.516 9.938 242.625 19.875 242.625 29.812 242.625 37.875 250.516 37.875 260.25 37.875 269.984 29.812 277.875 19.875 277.875 9.938 277.875 1.875 269.984 1.875 260.25ZM1.875 260.25"/>
<path d="M103.875 262.875C103.875 252.938 111.938 244.875 121.875 244.875 131.812 244.875 139.875 252.938 139.875 262.875 139.875 272.812 131.812 280.875 121.875 280.875 111.938 280.875 103.875 272.812 103.875 262.875ZM103.875 262.875" fill="#f8cbad" fill-rule="evenodd"/>
<path stroke-width="3.437498" stroke-linecap="butt" stroke-miterlimit="8" stroke-linejoin="miter" fill="none" stroke="#172c51" d="M103.875 262.875C103.875 252.938 111.938 244.875 121.875 244.875 131.812 244.875 139.875 252.938 139.875 262.875 139.875 272.812 131.812 280.875 121.875 280.875 111.938 280.875 103.875 272.812 103.875 262.875ZM103.875 262.875"/>
<path transform="matrix(-1,0,0,1,0,0)" stroke-width="1.718753" stroke-linecap="butt" stroke-miterlimit="8" stroke-linejoin="miter" fill="none" stroke="#000000" d="M-110.836 98.25-78.004 153.812"/>
<path stroke-width="1.718753" stroke-linecap="butt" stroke-miterlimit="8" stroke-linejoin="miter" fill="none" stroke="#000000" d="M130.5 96 160.809 154.086"/>
<path transform="matrix(-1,0,0,1,0,0)" stroke-width="1.718753" stroke-linecap="butt" stroke-miterlimit="8" stroke-linejoin="miter" fill="none" stroke="#000000" d="M-60.586 189.75-27.754 245.312"/>
<path stroke-width="1.718753" stroke-linecap="butt" stroke-miterlimit="8" stroke-linejoin="miter" fill="none" stroke="#000000" d="M81 187.5 111.309 245.586"/>
<path stroke-width="3.437498" stroke-linecap="butt" stroke-miterlimit="8" stroke-linejoin="miter" fill="none" stroke="#172c51" d="M148.875 171.75C148.875 162.016 156.766 154.125 166.5 154.125 176.234 154.125 184.125 162.016 184.125 171.75 184.125 181.484 176.234 189.375 166.5 189.375 156.766 189.375 148.875 181.484 148.875 171.75ZM148.875 171.75"/>
<path d="M153.988 246.449H161.469L167.656 264.703C168.539 267.328 169.23 269.551 169.719 271.363H169.973C170.102 270.414 170.387 268.824 170.828 266.609 171.277 264.391 171.684 262.449 172.059 260.797L173.699 253.41C174.047 251.863 174.219 250.605 174.219 249.637 174.219 248.902 174.031 248.391 173.664 248.102 173.297 247.816 172.719 247.641 171.914 247.598L172.176 246.449H180.383L180.121 247.598C179.527 247.727 179.102 247.867 178.844 248.016 178.59 248.176 178.359 248.414 178.156 248.723 177.953 249.039 177.742 249.523 177.516 250.191 177.301 250.852 177.031 251.934 176.699 253.434L171.195 278.445H168.008L161.16 258.328C160.336 255.93 159.609 253.531 158.977 251.137H158.676C158.578 251.934 158.324 253.453 157.906 255.699 157.477 257.941 157.035 260.129 156.57 262.266L154.508 271.621C154.176 273.105 154.012 274.328 154.012 275.281 154.012 275.984 154.184 276.48 154.539 276.766 154.891 277.059 155.484 277.23 156.309 277.297L156.051 278.445H147.848L148.102 277.297C148.703 277.199 149.145 277.051 149.445 276.84 149.738 276.629 149.992 276.328 150.195 275.953 150.398 275.578 150.586 275.129 150.758 274.59 150.93 274.051 151.184 273.008 151.531 271.453L155.512 253.41C155.672 252.742 155.789 252.098 155.887 251.488 155.977 250.883 156.031 250.262 156.031 249.637 156.031 248.902 155.844 248.391 155.477 248.102 155.109 247.816 154.531 247.641 153.727 247.598ZM153.988 246.449" fill-rule="evenodd"/>
</g>
</svg>
