<svg xmlns="http://www.w3.org/2000/svg" xmlns:xlink="http://www.w3.org/1999/xlink" version="1.1" width="644.25pt" height="426pt" viewBox="0 0 644.25 426">
<g>
<path d="M275.359 407.977V38.188H273.641V407.977ZM284.812 41.625 274.5 21 264.188 41.625ZM284.812 41.625"/>
<path d="M274.508 408.582 605.824 405.996 605.812 404.277 274.492 406.863ZM602.465 415.477 623.008 405.004 602.301 394.852ZM602.465 415.477"/>
<path stroke-width="1.718753" stroke-linecap="butt" stroke-dasharray="13.749975,5.15625" stroke-miterlimit="8" stroke-linejoin="miter" fill="none" stroke="#c00000" d="M274.5 165.75H603.48"/>
<path d="M363.375 109.875H479.625V151.125H363.375Z" fill="#ffe699"/>
<path stroke-width="3.437498" stroke-linecap="butt" stroke-miterlimit="8" stroke-linejoin="miter" fill="none" stroke="#000000" d="M363.375 109.875H479.625V151.125H363.375Z"/>
<path d="M403.125 196.875H528.375V301.875H403.125Z" fill="#c5e0b4"/>
<path stroke-width="3.437498" stroke-linecap="butt" stroke-miterlimit="8" stroke-linejoin="miter" fill="none" stroke="#000000" d="M403.125 196.875H528.375V301.875H403.125Z"/>
<path d="M411.109 113.273 408.133 126.727C409.617 127.059 410.938 127.223 412.094 127.223 414 127.223 415.562 126.863 416.781 126.148 418.004 125.445 418.883 124.492 419.43 123.309 419.977 122.113 420.254 120.781 420.254 119.297 420.254 117.344 419.609 115.852 418.328 114.824 417.047 113.789 414.797 113.273 411.578 113.273ZM409.75 110.672H410.992C413.508 110.672 415.527 110.797 417.051 111.039 418.574 111.277 419.91 111.711 421.059 112.352 422.203 112.98 423.074 113.82 423.66 114.871 424.246 115.914 424.539 117.141 424.539 118.547 424.539 119.707 424.359 120.789 423.988 121.809 423.621 122.82 423.113 123.758 422.453 124.621 421.801 125.477 420.996 126.246 420.051 126.93 419.109 127.605 418.172 128.121 417.254 128.484 416.656 128.707 415.93 128.895 415.07 129.047 415.523 130.426 416.051 131.91 416.652 133.5 417.254 135.098 417.742 136.273 418.109 137.055 418.477 137.828 418.809 138.449 419.113 138.93 419.422 139.402 419.73 139.746 420.039 139.957 420.352 140.168 420.711 140.273 421.117 140.273 421.777 140.273 422.363 140.102 422.879 139.762 423.391 139.418 424.156 138.703 425.176 137.625L426.555 138.871C425.34 140.34 424.164 141.422 423.039 142.125 421.914 142.828 420.637 143.184 419.199 143.184 418.289 143.184 417.516 143.023 416.887 142.727 416.254 142.418 415.723 142.004 415.293 141.48 414.863 140.953 414.477 140.297 414.133 139.492 413.789 138.684 413.289 137.355 412.633 135.496 411.977 133.637 411.32 131.609 410.664 129.422 409.727 129.422 408.695 129.352 407.57 129.211L406.492 134.602C406.258 135.801 405.973 136.809 405.637 137.602 405.301 138.398 404.93 139.074 404.523 139.621 404.117 140.168 403.676 140.633 403.199 141.023 402.723 141.414 402.129 141.797 401.418 142.172 400.707 142.547 400.012 142.809 399.332 142.957 398.652 143.109 397.945 143.184 397.211 143.184 396.023 143.184 394.961 142.844 394.023 142.184 393.086 141.516 392.25 140.512 391.516 139.148L394.703 137.324C395.359 138.613 395.992 139.574 396.602 140.191 397.211 140.812 397.883 141.121 398.617 141.121 398.992 141.121 399.367 141.047 399.742 140.895 400.117 140.746 400.457 140.453 400.762 140.016 401.066 139.582 401.332 138.961 401.559 138.164 401.785 137.371 402.086 136.078 402.461 134.297L405.484 119.672C405.719 118.582 406.043 117.496 406.457 116.43 406.871 115.359 407.359 114.398 407.922 113.559L407.875 113.324C404.391 113.324 401.895 113.641 400.387 114.285 398.879 114.922 398.125 116.016 398.125 117.562 398.125 118.359 398.398 119.332 398.945 120.473L395.336 121.875C394.992 121.312 394.746 120.789 394.598 120.293 394.449 119.805 394.375 119.258 394.375 118.664 394.375 117.988 394.57 117.324 394.961 116.648 395.445 115.824 396.234 114.977 397.328 114.105 398.422 113.242 399.551 112.547 400.715 112.02 401.879 111.496 403.18 111.137 404.617 110.934 405.773 110.762 407.484 110.672 409.75 110.672ZM409.75 110.672" fill-rule="evenodd"/>
<path d="M434.578 135.047C435.426 135.047 436.086 135.324 436.551 135.879 437.016 136.441 437.25 137.168 437.25 138.074 437.25 138.594 437.168 139.051 437.012 139.453L437.25 139.551C438.406 138.008 439.539 136.867 440.633 136.141 441.727 135.414 442.852 135.047 444.016 135.047 444.449 135.047 444.863 135.066 445.246 135.113 445.629 135.156 445.996 135.219 446.355 135.285L445.477 139.453H443.484C443.422 138.766 443.273 138.27 443.039 137.969 442.809 137.676 442.461 137.527 442.012 137.527 441.75 137.512 441.449 137.594 441.105 137.766 440.762 137.941 440.391 138.188 440.012 138.504 439.629 138.824 439.246 139.207 438.871 139.641 438.488 140.078 438.129 140.559 437.789 141.066 437.453 141.586 437.16 142.133 436.906 142.719 436.648 143.297 436.461 143.871 436.336 144.465L434.578 152.617H431.203L433.793 141.398C433.949 140.73 434.062 140.184 434.121 139.746 434.191 139.312 434.219 138.945 434.219 138.645 434.219 137.805 433.883 137.387 433.199 137.387 432.984 137.387 432.773 137.43 432.555 137.52 432.344 137.602 432.129 137.73 431.895 137.902 431.664 138.074 431.414 138.293 431.137 138.555 430.859 138.824 430.551 139.133 430.207 139.484L429.023 138.367C429.594 137.781 430.117 137.281 430.598 136.859 431.07 136.441 431.527 136.102 431.961 135.832 432.398 135.562 432.832 135.359 433.254 135.234 433.68 135.113 434.121 135.047 434.578 135.047ZM434.578 135.047" fill-rule="evenodd"/>
<path d="M459.309 236.184 456.328 249.629C457.816 249.961 459.137 250.125 460.289 250.125 462.195 250.125 463.754 249.773 464.977 249.059 466.191 248.348 467.078 247.395 467.625 246.211 468.172 245.023 468.441 243.691 468.441 242.203 468.441 240.246 467.805 238.754 466.523 237.727 465.238 236.691 462.988 236.184 459.773 236.184ZM457.941 233.578H459.188C461.699 233.578 463.727 233.699 465.246 233.941 466.77 234.188 468.105 234.621 469.254 235.254 470.398 235.891 471.27 236.73 471.855 237.773 472.441 238.824 472.734 240.047 472.734 241.453 472.734 242.609 472.551 243.699 472.184 244.711 471.816 245.73 471.309 246.668 470.648 247.523 469.996 248.387 469.191 249.148 468.246 249.832 467.301 250.516 466.363 251.031 465.441 251.391 464.852 251.609 464.121 251.797 463.266 251.953 463.719 253.328 464.242 254.812 464.852 256.41 465.449 258 465.93 259.184 466.297 259.957 466.664 260.73 467.004 261.352 467.309 261.832 467.609 262.312 467.918 262.648 468.234 262.859 468.547 263.078 468.906 263.184 469.312 263.184 469.965 263.184 470.559 263.012 471.066 262.664 471.586 262.32 472.352 261.609 473.371 260.535L474.75 261.773C473.527 263.242 472.359 264.328 471.234 265.035 470.109 265.734 468.824 266.086 467.391 266.086 466.484 266.086 465.711 265.934 465.082 265.629 464.445 265.328 463.922 264.906 463.484 264.391 463.059 263.863 462.668 263.199 462.328 262.395 461.984 261.594 461.484 260.258 460.828 258.398 460.172 256.539 459.516 254.512 458.859 252.328 457.922 252.328 456.891 252.254 455.766 252.121L454.688 257.504C454.453 258.711 454.172 259.711 453.832 260.504 453.496 261.309 453.129 261.977 452.715 262.523 452.309 263.07 451.867 263.543 451.395 263.934 450.914 264.324 450.324 264.703 449.609 265.078 448.906 265.453 448.207 265.719 447.523 265.859 446.852 266.012 446.137 266.086 445.402 266.086 444.219 266.086 443.152 265.754 442.215 265.086 441.277 264.426 440.445 263.414 439.711 262.059L442.898 260.227C443.559 261.523 444.188 262.477 444.797 263.102 445.402 263.715 446.078 264.023 446.812 264.023 447.188 264.023 447.562 263.949 447.938 263.797 448.312 263.656 448.648 263.363 448.957 262.922 449.258 262.484 449.527 261.871 449.754 261.066 449.977 260.273 450.277 258.984 450.652 257.203L453.684 242.578C453.914 241.484 454.238 240.406 454.648 239.332 455.062 238.262 455.559 237.309 456.121 236.461L456.066 236.227C452.586 236.227 450.09 236.551 448.582 237.188 447.074 237.824 446.316 238.922 446.316 240.473 446.316 241.266 446.594 242.234 447.141 243.375L443.527 244.785C443.191 244.223 442.941 243.691 442.793 243.203 442.641 242.707 442.566 242.168 442.566 241.566 442.566 240.898 442.762 240.227 443.152 239.559 443.641 238.727 444.426 237.879 445.523 237.016 446.617 236.145 447.742 235.449 448.914 234.922 450.074 234.406 451.371 234.039 452.812 233.836 453.969 233.664 455.676 233.578 457.941 233.578ZM457.941 233.578" fill-rule="evenodd"/>
<path d="M485.684 252.031H486.922C486.211 255.234 485.559 258.156 484.965 260.812 484.379 263.461 483.734 266.387 483.031 269.586 482.871 270.277 482.762 270.816 482.684 271.215 482.617 271.613 482.586 271.965 482.586 272.289 482.586 272.723 482.672 273.039 482.852 273.234 483.031 273.426 483.301 273.523 483.668 273.523 483.879 273.523 484.078 273.488 484.289 273.406 484.492 273.328 484.711 273.203 484.941 273.031 485.176 272.859 485.43 272.641 485.707 272.371 485.992 272.102 486.309 271.77 486.66 271.395L487.785 272.527C487.199 273.129 486.668 273.637 486.188 274.051 485.715 274.469 485.258 274.816 484.828 275.078 484.402 275.34 483.977 275.535 483.555 275.656 483.137 275.773 482.684 275.836 482.203 275.836 481.77 275.836 481.379 275.754 481.027 275.594 480.676 275.43 480.375 275.211 480.121 274.934 479.871 274.648 479.676 274.312 479.535 273.922 479.398 273.531 479.332 273.105 479.332 272.633 479.332 272.211 479.379 271.688 479.461 271.059 479.551 270.434 479.684 269.723 479.863 268.934 480.359 266.73 480.848 264.531 481.336 262.344 481.824 260.152 482.219 258.465 482.535 257.297 482.805 256.051 482.949 255.195 482.949 254.73 482.949 254.488 482.918 254.297 482.852 254.129 482.789 253.973 482.672 253.836 482.504 253.734 482.34 253.637 482.113 253.559 481.828 253.516 481.539 253.461 481.172 253.434 480.703 253.41L480.953 252.238ZM485.684 252.031" fill-rule="evenodd"/>
<path stroke-width="3.437498" stroke-linecap="square" stroke-dasharray="10.3125,3.437498" stroke-miterlimit="8" stroke-linejoin="miter" fill="none" stroke="#7f7f7f" d="M363.375 109.875H528.375V301.875H363.375Z"/>
<path stroke-width="3.437498" stroke-linecap="butt" stroke-miterlimit="8" stroke-linejoin="miter" fill="none" stroke="#172c51" d="M107.625 82.125C107.625 72.188 115.516 64.125 125.25 64.125 134.984 64.125 142.875 72.188 142.875 82.125 142.875 92.062 134.984 100.125 125.25 100.125 115.516 100.125 107.625 92.062 107.625 82.125ZM107.625 82.125"/>
<path stroke-width="3.437498" stroke-linecap="butt" stroke-miterlimit="8" stroke-linejoin="miter" fill="none" stroke="#172c51" d="M57.375 171C57.375 161.266 65.434 153.375 75.375 153.375 85.316 153.375 93.375 161.266 93.375 171 93.375 180.734 85.316 188.625 75.375 188.625 65.434 188.625 57.375 180.734 57.375 171ZM57.375 171"/>
<path stroke-width="3.437498" stroke-linecap="butt" stroke-miterlimit="8" stroke-linejoin="miter" fill="none" stroke="#172c51" d="M4.875 260.25C4.875 250.516 12.934 242.625 22.875 242.625 32.816 242.625 40.875 250.516 40.875 260.25 40.875 269.984 32.816 277.875 22.875 277.875 12.934 277.875 4.875 269.984 4.875 260.25ZM4.875 260.25"/>
<path stroke-width="3.437498" stroke-linecap="butt" stroke-miterlimit="8" stroke-linejoin="miter" fill="none" stroke="#172c51" d="M107.625 262.875C107.625 252.938 115.516 244.875 125.25 244.875 134.984 244.875 142.875 252.938 142.875 262.875 142.875 272.812 134.984 280.875 125.25 280.875 115.516 280.875 107.625 272.812 107.625 262.875ZM107.625 262.875"/>
<path transform="matrix(-1,0,0,1,0,0)" stroke-width="1.718753" stroke-linecap="butt" stroke-miterlimit="8" stroke-linejoin="miter" fill="none" stroke="#000000" d="M-113.832 98.25-81 153.812"/>
<path stroke-width="1.718753" stroke-linecap="butt" stroke-miterlimit="8" stroke-linejoin="miter" fill="none" stroke="#000000" d="M134.25 96 164.555 154.086"/>
<path transform="matrix(-1,0,0,1,0,0)" stroke-width="1.718753" stroke-linecap="butt" stroke-miterlimit="8" stroke-linejoin="miter" fill="none" stroke="#000000" d="M-66.582 189.75-33.75 245.312"/>
<path stroke-width="1.718753" stroke-linecap="butt" stroke-miterlimit="8" stroke-linejoin="miter" fill="none" stroke="#000000" d="M84 187.5 114.305 245.586"/>
<path d="M56.625 351.375C56.625 341.438 64.516 333.375 74.25 333.375 83.984 333.375 91.875 341.438 91.875 351.375 91.875 361.312 83.984 369.375 74.25 369.375 64.516 369.375 56.625 361.312 56.625 351.375ZM56.625 351.375" fill="#c5e0b4" fill-rule="evenodd"/>
<path stroke-width="3.437498" stroke-linecap="butt" stroke-miterlimit="8" stroke-linejoin="miter" fill="none" stroke="#172c51" d="M56.625 351.375C56.625 341.438 64.516 333.375 74.25 333.375 83.984 333.375 91.875 341.438 91.875 351.375 91.875 361.312 83.984 369.375 74.25 369.375 64.516 369.375 56.625 361.312 56.625 351.375ZM56.625 351.375"/>
<path d="M153.375 353.25C153.375 343.516 161.266 335.625 171 335.625 180.734 335.625 188.625 343.516 188.625 353.25 188.625 362.984 180.734 370.875 171 370.875 161.266 370.875 153.375 362.984 153.375 353.25ZM153.375 353.25" fill="#ffe699" fill-rule="evenodd"/>
<path stroke-width="3.437498" stroke-linecap="butt" stroke-miterlimit="8" stroke-linejoin="miter" fill="none" stroke="#172c51" d="M153.375 353.25C153.375 343.516 161.266 335.625 171 335.625 180.734 335.625 188.625 343.516 188.625 353.25 188.625 362.984 180.734 370.875 171 370.875 161.266 370.875 153.375 362.984 153.375 353.25ZM153.375 353.25"/>
<path transform="matrix(-1,0,0,1,0,0)" stroke-width="1.718753" stroke-linecap="butt" stroke-miterlimit="8" stroke-linejoin="miter" fill="none" stroke="#000000" d="M-112.332 276-79.5 331.562"/>
<path stroke-width="1.718753" stroke-linecap="butt" stroke-miterlimit="8" stroke-linejoin="miter" fill="none" stroke="#000000" d="M135 276 165.305 334.086"/>
<path stroke-width="3.437498" stroke-linecap="butt" stroke-miterlimit="8" stroke-linejoin="miter" fill="none" stroke="#172c51" d="M153.375 171.75C153.375 162.016 161.266 154.125 171 154.125 180.734 154.125 188.625 162.016 188.625 171.75 188.625 181.484 180.734 189.375 171 189.375 161.266 189.375 153.375 181.484 153.375 171.75ZM153.375 171.75"/>
<path d="M12.707 334.965H20.184L26.371 353.227C27.266 355.852 27.949 358.074 28.434 359.879H28.695C28.82 358.926 29.105 357.344 29.547 355.125 29.992 352.906 30.402 350.969 30.777 349.312L32.422 341.926C32.766 340.379 32.934 339.121 32.934 338.152 32.934 337.418 32.75 336.906 32.387 336.621 32.016 336.328 31.434 336.164 30.641 336.113L30.895 334.965H39.102L38.84 336.113C38.246 336.238 37.824 336.383 37.566 336.539 37.305 336.699 37.078 336.93 36.871 337.238 36.668 337.551 36.461 338.039 36.238 338.707 36.023 339.367 35.746 340.453 35.422 341.953L29.914 366.961H26.727L19.883 346.852C19.055 344.445 18.328 342.047 17.703 339.652H17.395C17.301 340.453 17.047 341.969 16.621 344.211 16.203 346.453 15.758 348.645 15.289 350.789L13.227 360.141C12.895 361.621 12.734 362.844 12.734 363.797 12.734 364.5 12.91 364.996 13.262 365.289 13.609 365.574 14.203 365.746 15.027 365.812L14.77 366.961H6.57L6.828 365.812C7.418 365.715 7.867 365.566 8.164 365.355 8.461 365.145 8.711 364.852 8.914 364.477 9.117 364.102 9.305 363.645 9.477 363.105 9.648 362.566 9.906 361.523 10.246 359.977L14.234 341.926C14.391 341.258 14.516 340.613 14.609 340.004 14.703 339.398 14.746 338.781 14.746 338.152 14.746 337.418 14.562 336.906 14.199 336.621 13.828 336.328 13.246 336.164 12.453 336.113ZM12.707 334.965" fill-rule="evenodd"/>
<path d="M45.699 353.281H46.941C46.227 356.484 45.578 359.406 44.984 362.055 44.395 364.711 43.75 367.637 43.051 370.836 42.891 371.527 42.773 372.066 42.703 372.465 42.637 372.855 42.602 373.215 42.602 373.539 42.602 373.973 42.691 374.289 42.867 374.484 43.047 374.676 43.32 374.773 43.688 374.773 43.895 374.773 44.098 374.738 44.305 374.656 44.512 374.578 44.73 374.453 44.961 374.281 45.191 374.109 45.445 373.883 45.727 373.613 46.008 373.344 46.324 373.02 46.68 372.645L47.801 373.777C47.215 374.379 46.684 374.879 46.207 375.301 45.73 375.719 45.277 376.066 44.848 376.328 44.418 376.59 43.992 376.785 43.574 376.906 43.156 377.023 42.703 377.086 42.223 377.086 41.785 377.086 41.395 377.004 41.043 376.844 40.695 376.68 40.395 376.461 40.141 376.176 39.887 375.898 39.691 375.562 39.555 375.172 39.418 374.781 39.348 374.355 39.348 373.883 39.348 373.453 39.391 372.93 39.477 372.309 39.562 371.684 39.699 370.973 39.883 370.184 40.375 367.98 40.867 365.781 41.355 363.594 41.84 361.395 42.242 359.715 42.551 358.547 42.824 357.293 42.965 356.438 42.965 355.98 42.965 355.738 42.934 355.539 42.867 355.379 42.805 355.215 42.691 355.086 42.523 354.984 42.359 354.879 42.133 354.801 41.844 354.758 41.559 354.711 41.184 354.684 40.727 354.66L40.969 353.484ZM45.699 353.281" fill-rule="evenodd"/>
<path d="M205.641 337.492H213.117L219.305 355.746C220.195 358.371 220.883 360.594 221.367 362.406H221.625C221.75 361.453 222.035 359.863 222.48 357.652 222.926 355.434 223.336 353.488 223.711 351.84L225.352 344.453C225.695 342.906 225.867 341.648 225.867 340.68 225.867 339.945 225.684 339.434 225.316 339.141 224.949 338.859 224.367 338.684 223.57 338.641L223.828 337.492H232.031L231.773 338.641C231.18 338.766 230.754 338.91 230.496 339.059 230.238 339.219 230.008 339.457 229.805 339.766 229.602 340.078 229.391 340.566 229.172 341.234 228.953 341.895 228.68 342.977 228.352 344.477L222.844 369.488H219.656L212.812 349.371C211.984 346.973 211.258 344.574 210.633 342.18H210.328C210.234 342.977 209.977 344.496 209.555 346.738 209.133 348.984 208.688 351.172 208.219 353.309L206.156 362.664C205.828 364.148 205.664 365.371 205.664 366.324 205.664 367.027 205.84 367.523 206.191 367.809 206.543 368.102 207.133 368.273 207.961 368.34L207.703 369.488H199.5L199.758 368.34C200.352 368.242 200.797 368.094 201.094 367.883 201.391 367.672 201.641 367.371 201.844 366.996 202.047 366.621 202.234 366.172 202.406 365.633 202.578 365.094 202.836 364.051 203.18 362.496L207.164 344.453C207.32 343.785 207.445 343.141 207.539 342.531 207.633 341.926 207.68 341.301 207.68 340.68 207.68 339.945 207.496 339.434 207.129 339.141 206.762 338.859 206.18 338.684 205.383 338.641ZM205.641 337.492" fill-rule="evenodd"/>
<path d="M235.723 361.727C236.574 361.727 237.23 362.004 237.695 362.559 238.16 363.121 238.391 363.848 238.391 364.754 238.391 365.273 238.312 365.73 238.152 366.137L238.391 366.234C239.551 364.688 240.676 363.547 241.773 362.82 242.871 362.094 243.996 361.727 245.156 361.727 245.59 361.727 246 361.746 246.387 361.793 246.77 361.836 247.141 361.898 247.496 361.965L246.617 366.137H244.621C244.566 365.445 244.418 364.949 244.184 364.648 243.949 364.352 243.605 364.207 243.16 364.207 242.895 364.191 242.59 364.273 242.246 364.449 241.902 364.621 241.539 364.867 241.152 365.184 240.77 365.504 240.387 365.887 240.008 366.324 239.629 366.758 239.273 367.238 238.934 367.746 238.594 368.266 238.301 368.812 238.047 369.398 237.793 369.977 237.605 370.551 237.48 371.137L235.723 379.297H232.352L234.93 368.078C235.094 367.41 235.203 366.863 235.266 366.426 235.332 365.984 235.363 365.625 235.363 365.324 235.363 364.484 235.023 364.066 234.348 364.066 234.129 364.066 233.914 364.109 233.699 364.191 233.488 364.281 233.27 364.41 233.039 364.582 232.809 364.754 232.555 364.973 232.281 365.234 232.004 365.496 231.695 365.812 231.352 366.164L230.164 365.047C230.738 364.461 231.262 363.961 231.738 363.539 232.215 363.121 232.672 362.773 233.109 362.512 233.543 362.242 233.973 362.039 234.398 361.914 234.824 361.793 235.266 361.727 235.723 361.727ZM235.723 361.727" fill-rule="evenodd"/>
<path d="M156.027 249.156H163.504L169.691 267.422C170.582 270.047 171.27 272.258 171.754 274.074H172.012C172.137 273.121 172.422 271.539 172.867 269.316 173.312 267.098 173.723 265.164 174.098 263.504L175.738 256.117C176.082 254.574 176.254 253.312 176.254 252.344 176.254 251.609 176.07 251.102 175.703 250.816 175.336 250.523 174.754 250.359 173.957 250.305L174.215 249.156H182.418L182.16 250.305C181.566 250.434 181.141 250.574 180.883 250.734 180.625 250.883 180.395 251.121 180.191 251.43 179.988 251.746 179.777 252.234 179.559 252.898 179.34 253.559 179.066 254.648 178.738 256.148L173.23 281.152H170.043L163.199 261.047C162.371 258.637 161.645 256.238 161.02 253.844H160.715C160.621 254.648 160.363 256.164 159.941 258.406 159.52 260.648 159.074 262.836 158.605 264.984L156.543 274.336C156.215 275.812 156.051 277.035 156.051 277.988 156.051 278.691 156.227 279.188 156.578 279.473 156.93 279.766 157.52 279.938 158.348 280.004L158.09 281.152H149.887L150.145 280.004C150.738 279.906 151.184 279.758 151.48 279.547 151.777 279.336 152.027 279.047 152.23 278.672 152.434 278.297 152.621 277.836 152.793 277.297 152.965 276.758 153.223 275.715 153.566 274.172L157.551 256.117C157.707 255.449 157.832 254.805 157.926 254.199 158.02 253.59 158.066 252.977 158.066 252.344 158.066 251.609 157.883 251.102 157.516 250.816 157.148 250.523 156.566 250.359 155.77 250.305ZM156.027 249.156" fill-rule="evenodd"/>
</g>
</svg>
