<svg xmlns="http://www.w3.org/2000/svg" xmlns:xlink="http://www.w3.org/1999/xlink" version="1.1" width="390.75pt" height="426.75pt" viewBox="0 0 390.75 426.75">
<g>
<path d="M21.859 407.977V38.188H20.141V407.977ZM31.312 41.625 21 21 10.688 41.625ZM31.312 41.625"/>
<path d="M21.008 409.332 352.324 406.746 352.312 405.027 20.992 407.613ZM348.965 416.227 369.508 405.754 348.801 395.602ZM348.965 416.227"/>
<path stroke-width="1.718753" stroke-linecap="butt" stroke-dasharray="13.749975,5.15625" stroke-miterlimit="8" stroke-linejoin="miter" fill="none" stroke="#c00000" d="M21 166.5H349.98"/>
<path stroke-width="3.437498" stroke-linecap="butt" stroke-miterlimit="8" stroke-linejoin="miter" fill="none" stroke="#000000" d="M109.875 110.625H226.125V151.875H109.875Z"/>
<path stroke-width="3.437498" stroke-linecap="butt" stroke-miterlimit="8" stroke-linejoin="miter" fill="none" stroke="#000000" d="M149.625 196.875H274.875V302.625H149.625Z"/>
<path d="M157.688 113.812 154.711 127.266C156.195 127.59 157.516 127.754 158.672 127.754 160.574 127.754 162.141 127.402 163.359 126.691 164.578 125.977 165.457 125.031 166.004 123.84 166.551 122.656 166.828 121.32 166.828 119.836 166.828 117.887 166.184 116.391 164.902 115.359 163.629 114.328 161.379 113.812 158.152 113.812ZM156.328 111.211H157.566C160.086 111.211 162.105 111.328 163.629 111.578 165.148 111.816 166.484 112.254 167.641 112.891 168.789 113.52 169.648 114.359 170.234 115.402 170.828 116.453 171.121 117.684 171.121 119.086 171.121 120.238 170.934 121.328 170.566 122.34 170.199 123.359 169.688 124.297 169.027 125.152 168.375 126.016 167.574 126.789 166.629 127.461 165.684 128.145 164.754 128.664 163.828 129.023 163.238 129.238 162.512 129.426 161.648 129.586 162.105 130.957 162.629 132.441 163.23 134.039 163.828 135.629 164.316 136.816 164.684 137.586 165.051 138.359 165.391 138.988 165.691 139.461 165.996 139.941 166.305 140.289 166.621 140.496 166.926 140.707 167.289 140.812 167.691 140.812 168.352 140.812 168.938 140.641 169.453 140.297 169.965 139.949 170.738 139.246 171.75 138.164L173.129 139.402C171.914 140.871 170.746 141.961 169.621 142.664 168.496 143.371 167.211 143.715 165.773 143.715 164.863 143.715 164.102 143.566 163.461 143.266 162.832 142.957 162.301 142.547 161.871 142.02 161.438 141.496 161.055 140.836 160.711 140.023 160.363 139.223 159.871 137.887 159.211 136.027 158.559 134.176 157.898 132.148 157.246 129.961 156.309 129.961 155.273 129.891 154.148 129.75L153.066 135.141C152.836 136.344 152.551 137.34 152.211 138.141 151.875 138.938 151.508 139.613 151.102 140.152 150.699 140.699 150.254 141.172 149.773 141.562 149.301 141.953 148.711 142.336 147.996 142.711 147.285 143.086 146.586 143.348 145.914 143.496 145.23 143.648 144.523 143.715 143.789 143.715 142.605 143.715 141.539 143.387 140.602 142.727 139.664 142.059 138.824 141.047 138.09 139.688L141.277 137.859C141.938 139.156 142.566 140.113 143.184 140.73 143.789 141.344 144.457 141.652 145.191 141.652 145.566 141.652 145.941 141.586 146.316 141.434 146.691 141.285 147.039 140.992 147.336 140.559 147.645 140.113 147.906 139.5 148.141 138.703 148.363 137.902 148.664 136.621 149.039 134.836L152.062 120.211C152.297 119.113 152.617 118.035 153.039 116.961 153.449 115.898 153.938 114.938 154.5 114.09L154.453 113.859C150.969 113.859 148.469 114.18 146.961 114.816 145.453 115.461 144.703 116.559 144.703 118.102 144.703 118.898 144.977 119.863 145.523 121.004L141.914 122.414C141.57 121.852 141.324 121.328 141.172 120.832 141.031 120.336 140.953 119.797 140.953 119.203 140.953 118.531 141.148 117.863 141.539 117.188 142.02 116.363 142.816 115.516 143.902 114.645 144.996 113.773 146.129 113.086 147.293 112.559 148.453 112.035 149.762 111.676 151.191 111.465 152.355 111.301 154.066 111.211 156.328 111.211ZM156.328 111.211" fill-rule="evenodd"/>
<path d="M181.156 135.586C182.004 135.586 182.664 135.863 183.129 136.418 183.594 136.973 183.824 137.707 183.824 138.613 183.824 139.133 183.742 139.59 183.586 139.988L183.824 140.094C184.988 138.547 186.113 137.406 187.207 136.68 188.301 135.945 189.426 135.586 190.59 135.586 191.023 135.586 191.438 135.609 191.82 135.652 192.203 135.699 192.578 135.758 192.93 135.824L192.051 139.988H190.059C189.996 139.305 189.855 138.809 189.613 138.512 189.383 138.211 189.039 138.059 188.594 138.059 188.324 138.051 188.023 138.137 187.68 138.301 187.336 138.473 186.977 138.719 186.586 139.043 186.203 139.363 185.82 139.738 185.445 140.184 185.062 140.617 184.703 141.09 184.363 141.609 184.027 142.125 183.734 142.672 183.48 143.25 183.227 143.836 183.039 144.414 182.91 144.996L181.156 153.156H177.781L180.367 141.938C180.523 141.27 180.637 140.723 180.699 140.281 180.766 139.844 180.797 139.477 180.797 139.184 180.797 138.344 180.457 137.926 179.781 137.926 179.566 137.926 179.348 137.969 179.137 138.051 178.922 138.141 178.703 138.27 178.469 138.441 178.246 138.613 177.988 138.832 177.711 139.094 177.441 139.359 177.129 139.672 176.781 140.023L175.598 138.906C176.176 138.324 176.691 137.82 177.172 137.398 177.645 136.98 178.102 136.637 178.539 136.363 178.98 136.094 179.406 135.898 179.836 135.773 180.254 135.645 180.699 135.586 181.156 135.586ZM181.156 135.586" fill-rule="evenodd"/>
<path d="M205.883 236.715 202.906 250.172C204.391 250.5 205.711 250.664 206.863 250.664 208.77 250.664 210.328 250.305 211.551 249.602 212.766 248.887 213.652 247.934 214.199 246.75 214.746 245.566 215.016 244.223 215.016 242.738 215.016 240.789 214.379 239.297 213.098 238.266 211.816 237.234 209.566 236.715 206.348 236.715ZM204.516 234.113H205.762C208.281 234.113 210.301 234.238 211.824 234.48 213.344 234.719 214.68 235.164 215.828 235.793 216.977 236.422 217.844 237.262 218.43 238.312 219.016 239.355 219.309 240.586 219.309 241.988 219.309 243.148 219.129 244.23 218.762 245.25 218.391 246.262 217.883 247.199 217.223 248.062 216.57 248.918 215.766 249.691 214.824 250.371 213.879 251.047 212.941 251.574 212.016 251.926 211.426 252.148 210.699 252.336 209.844 252.488 210.293 253.867 210.824 255.352 211.426 256.941 212.023 258.539 212.512 259.727 212.879 260.496 213.238 261.27 213.578 261.891 213.887 262.371 214.191 262.844 214.5 263.191 214.809 263.398 215.121 263.609 215.484 263.715 215.887 263.715 216.547 263.715 217.133 263.543 217.641 263.203 218.16 262.859 218.926 262.148 219.945 261.066L221.324 262.312C220.109 263.781 218.934 264.863 217.809 265.566 216.684 266.273 215.406 266.625 213.969 266.625 213.059 266.625 212.289 266.477 211.656 266.168 211.027 265.859 210.496 265.449 210.066 264.922 209.633 264.406 209.25 263.738 208.906 262.934 208.559 262.125 208.059 260.797 207.406 258.938 206.746 257.078 206.094 255.051 205.434 252.863 204.496 252.863 203.469 252.797 202.344 252.652L201.262 258.047C201.031 259.254 200.746 260.25 200.406 261.047 200.07 261.84 199.703 262.516 199.297 263.062 198.887 263.609 198.449 264.074 197.969 264.465 197.488 264.855 196.898 265.238 196.191 265.613 195.48 265.988 194.781 266.25 194.102 266.398 193.426 266.551 192.719 266.625 191.984 266.625 190.793 266.625 189.734 266.297 188.797 265.629 187.859 264.969 187.02 263.953 186.285 262.59L189.473 260.766C190.133 262.066 190.762 263.016 191.371 263.633 191.984 264.254 192.652 264.562 193.387 264.562 193.762 264.562 194.137 264.488 194.512 264.336 194.887 264.188 195.227 263.895 195.531 263.461 195.84 263.023 196.102 262.402 196.328 261.609 196.551 260.812 196.859 259.523 197.234 257.738L200.258 243.113C200.488 242.023 200.812 240.938 201.227 239.871 201.645 238.801 202.133 237.84 202.695 237L202.641 236.766C199.164 236.766 196.664 237.082 195.156 237.727 193.648 238.363 192.891 239.461 192.891 241.004 192.891 241.801 193.172 242.773 193.719 243.914L190.109 245.316C189.766 244.754 189.516 244.23 189.367 243.734 189.219 243.246 189.141 242.699 189.141 242.109 189.141 241.441 189.344 240.766 189.734 240.09 190.215 239.266 191.004 238.418 192.098 237.547 193.191 236.684 194.324 235.988 195.488 235.461 196.648 234.938 197.949 234.578 199.387 234.375 200.543 234.203 202.254 234.113 204.516 234.113ZM204.516 234.113" fill-rule="evenodd"/>
<path d="M232.262 252.57H233.496C232.785 255.773 232.133 258.699 231.547 261.344 230.953 264 230.309 266.926 229.605 270.129 229.449 270.809 229.336 271.359 229.266 271.754 229.191 272.145 229.164 272.504 229.164 272.828 229.164 273.262 229.254 273.578 229.426 273.773 229.605 273.969 229.875 274.066 230.242 274.066 230.453 274.066 230.656 274.027 230.863 273.945 231.074 273.863 231.293 273.742 231.516 273.57 231.75 273.398 232.004 273.172 232.281 272.902 232.566 272.633 232.883 272.309 233.242 271.934L234.359 273.066C233.773 273.668 233.242 274.172 232.77 274.59 232.289 275.012 231.84 275.355 231.406 275.617 230.977 275.879 230.551 276.074 230.129 276.195 229.719 276.316 229.266 276.375 228.781 276.375 228.344 276.375 227.953 276.293 227.602 276.137 227.25 275.969 226.949 275.754 226.703 275.469 226.449 275.191 226.254 274.852 226.117 274.461 225.977 274.074 225.906 273.645 225.906 273.172 225.906 272.746 225.953 272.219 226.035 271.598 226.125 270.969 226.262 270.262 226.441 269.469 226.934 267.27 227.422 265.074 227.91 262.875 228.398 260.684 228.801 259.004 229.109 257.836 229.387 256.582 229.523 255.727 229.523 255.27 229.523 255.031 229.492 254.828 229.426 254.672 229.363 254.504 229.254 254.379 229.078 254.273 228.914 254.168 228.691 254.094 228.406 254.047 228.121 254.004 227.746 253.965 227.289 253.941L227.527 252.773ZM232.262 252.57" fill-rule="evenodd"/>
</g>
</svg>
