<svg xmlns="http://www.w3.org/2000/svg" xmlns:xlink="http://www.w3.org/1999/xlink" version="1.1" width="439.5pt" height="426pt" viewBox="0 0 439.5 426">
<g>
<path d="M70.609 407.977V38.188H68.891V407.977ZM80.062 41.625 69.75 21 59.438 41.625ZM80.062 41.625"/>
<path d="M69.758 408.582 401.074 405.996 401.062 404.277 69.742 406.863ZM397.715 415.477 418.258 405.004 397.551 394.852ZM397.715 415.477"/>
<path stroke-width="3.437498" stroke-linecap="butt" stroke-miterlimit="8" stroke-linejoin="miter" fill="none" stroke="#000000" d="M142.125 97.875H339.375V342.375H142.125Z"/>
<path stroke-width="1.718753" stroke-linecap="butt" stroke-dasharray="13.749975,5.15625" stroke-miterlimit="8" stroke-linejoin="miter" fill="none" stroke="#c00000" d="M69.75 166.5H398.73"/>
<path d="M158.25 119.25C158.25 114.277 162.277 110.25 167.25 110.25 172.223 110.25 176.25 114.277 176.25 119.25 176.25 124.223 172.223 128.25 167.25 128.25 162.277 128.25 158.25 124.223 158.25 119.25ZM158.25 119.25" fill="#4472c4" fill-rule="evenodd"/>
<path d="M189.75 143.25C189.75 138.277 193.613 134.25 198.375 134.25 203.137 134.25 207 138.277 207 143.25 207 148.223 203.137 152.25 198.375 152.25 193.613 152.25 189.75 148.223 189.75 143.25ZM189.75 143.25" fill="#4472c4" fill-rule="evenodd"/>
<path d="M220.5 118.875C220.5 114.113 224.527 110.25 229.5 110.25 234.473 110.25 238.5 114.113 238.5 118.875 238.5 123.637 234.473 127.5 229.5 127.5 224.527 127.5 220.5 123.637 220.5 118.875ZM220.5 118.875" fill="#4472c4" fill-rule="evenodd"/>
<path d="M256.5 130.5C256.5 125.527 260.527 121.5 265.5 121.5 270.473 121.5 274.5 125.527 274.5 130.5 274.5 135.473 270.473 139.5 265.5 139.5 260.527 139.5 256.5 135.473 256.5 130.5ZM256.5 130.5" fill="#4472c4" fill-rule="evenodd"/>
<path stroke-width="3.437498" stroke-linecap="square" stroke-dasharray="10.3125,3.437498" stroke-miterlimit="8" stroke-linejoin="miter" fill="none" stroke="#7f7f7f" d="M158.625 110.625H274.875V151.875H158.625Z"/>
<path d="M50.25 110.25H70.5V153.75H50.25Z" fill="#767171" fill-opacity=".501961"/>
<path d="M202.5 223.125C202.5 218.363 206.527 214.5 211.5 214.5 216.473 214.5 220.5 218.363 220.5 223.125 220.5 227.887 216.473 231.75 211.5 231.75 206.527 231.75 202.5 227.887 202.5 223.125ZM202.5 223.125" fill="#4472c4" fill-rule="evenodd"/>
<path d="M198 296.25C198 291.277 201.863 287.25 206.625 287.25 211.387 287.25 215.25 291.277 215.25 296.25 215.25 301.223 211.387 305.25 206.625 305.25 201.863 305.25 198 301.223 198 296.25ZM198 296.25" fill="#4472c4" fill-rule="evenodd"/>
<path d="M219 268.875C219 264.113 222.863 260.25 227.625 260.25 232.387 260.25 236.25 264.113 236.25 268.875 236.25 273.637 232.387 277.5 227.625 277.5 222.863 277.5 219 273.637 219 268.875ZM219 268.875" fill="#4472c4" fill-rule="evenodd"/>
<path d="M305.25 206.25C305.25 201.277 309.277 197.25 314.25 197.25 319.223 197.25 323.25 201.277 323.25 206.25 323.25 211.223 319.223 215.25 314.25 215.25 309.277 215.25 305.25 211.223 305.25 206.25ZM305.25 206.25" fill="#4472c4" fill-rule="evenodd"/>
<path d="M265.5 238.875C265.5 234.113 269.363 230.25 274.125 230.25 278.887 230.25 282.75 234.113 282.75 238.875 282.75 243.637 278.887 247.5 274.125 247.5 269.363 247.5 265.5 243.637 265.5 238.875ZM265.5 238.875" fill="#4472c4" fill-rule="evenodd"/>
<path d="M307.5 289.5C307.5 284.527 311.527 280.5 316.5 280.5 321.473 280.5 325.5 284.527 325.5 289.5 325.5 294.473 321.473 298.5 316.5 298.5 311.527 298.5 307.5 294.473 307.5 289.5ZM307.5 289.5" fill="#4472c4" fill-rule="evenodd"/>
<path stroke-width="3.437498" stroke-linecap="square" stroke-dasharray="10.3125,3.437498" stroke-miterlimit="8" stroke-linejoin="miter" fill="none" stroke="#7f7f7f" d="M198.375 196.875H323.625V302.625H198.375Z"/>
<path stroke-width="1.718753" stroke-linecap="butt" stroke-dasharray="1.718753,1.718753" stroke-miterlimit="8" stroke-linejoin="miter" fill="none" stroke="#767171" d="M69.75 302.25H197.52"/>
<path d="M2.25 196.5H68.25V304.5H2.25Z" fill="#767171" fill-opacity=".501961"/>
<path stroke-width="1.718753" stroke-linecap="butt" stroke-dasharray="1.718753,1.718753" stroke-miterlimit="8" stroke-linejoin="miter" fill="none" stroke="#767171" d="M70.5 196.5H202.844"/>
<path stroke-width="1.718753" stroke-linecap="butt" stroke-dasharray="1.718753,1.718753" stroke-miterlimit="8" stroke-linejoin="miter" fill="none" stroke="#767171" d="M71.25 110.25H160.656"/>
<path stroke-width="1.718753" stroke-linecap="butt" stroke-dasharray="1.718753,1.718753" stroke-miterlimit="8" stroke-linejoin="miter" fill="none" stroke="#767171" d="M70.5 151.5H159.906"/>
<path d="M33.105 327.773H34.273L30.809 341.73 31.051 341.812C32.324 340.117 33.531 338.895 34.664 338.137 35.797 337.371 36.945 336.996 38.102 336.996 39.352 336.996 40.312 337.359 40.98 338.078 41.656 338.789 41.984 339.789 41.984 341.062 41.984 341.91 41.789 343.109 41.398 344.672L40.094 349.949C39.734 351.414 39.547 352.449 39.547 353.047 39.547 353.586 39.637 353.977 39.809 354.219 39.988 354.457 40.262 354.578 40.637 354.578 41.039 354.578 41.469 354.414 41.926 354.09 42.383 353.762 43.027 353.129 43.859 352.199L45.008 353.332C43.719 354.691 42.66 355.621 41.836 356.129 41.012 356.641 40.078 356.895 39.047 356.895 38.176 356.895 37.477 356.586 36.961 355.973 36.441 355.352 36.188 354.555 36.188 353.574 36.188 352.703 36.406 351.422 36.855 349.727L37.719 346.246C38.023 344.992 38.234 344.055 38.34 343.434 38.453 342.809 38.504 342.324 38.504 341.969 38.504 341.016 38.348 340.344 38.039 339.945 37.734 339.555 37.23 339.352 36.531 339.352 35.977 339.352 35.371 339.586 34.695 340.035 34.027 340.492 33.324 341.191 32.578 342.121 31.844 343.059 31.254 343.949 30.816 344.805 30.383 345.652 30.039 346.672 29.781 347.852L27.953 356.574H24.465L29.641 333.555C29.961 332.113 30.129 331.125 30.129 330.57 30.129 330.008 29.953 329.609 29.609 329.387 29.266 329.152 28.656 329.023 27.766 329.004L28.012 327.953ZM33.105 327.773" fill-rule="evenodd"/>
<path d="M53.191 345H54.246C53.641 347.723 53.086 350.211 52.582 352.469 52.078 354.727 51.531 357.219 50.941 359.941 50.797 360.523 50.699 360.988 50.641 361.328 50.586 361.664 50.559 361.973 50.559 362.242 50.559 362.609 50.633 362.879 50.781 363.047 50.934 363.219 51.164 363.301 51.48 363.301 51.652 363.301 51.832 363.262 52.004 363.195 52.184 363.129 52.363 363.023 52.559 362.871 52.754 362.723 52.973 362.535 53.211 362.309 53.453 362.078 53.723 361.801 54.031 361.477L54.984 362.445C54.48 362.953 54.031 363.391 53.625 363.742 53.219 364.102 52.828 364.387 52.469 364.613 52.102 364.836 51.742 365.004 51.383 365.109 51.031 365.211 50.641 365.258 50.234 365.258 49.859 365.258 49.531 365.191 49.23 365.055 48.93 364.922 48.676 364.734 48.457 364.492 48.246 364.254 48.082 363.969 47.961 363.637 47.844 363.301 47.789 362.934 47.789 362.535 47.789 362.176 47.82 361.727 47.895 361.191 47.969 360.66 48.082 360.059 48.238 359.387 48.66 357.512 49.078 355.641 49.492 353.773 49.906 351.906 50.25 350.484 50.512 349.484 50.746 348.422 50.863 347.691 50.863 347.301 50.863 347.094 50.836 346.926 50.781 346.785 50.73 346.648 50.633 346.539 50.488 346.453 50.348 346.363 50.152 346.297 49.914 346.262 49.664 346.223 49.352 346.191 48.961 346.172L49.164 345.18ZM53.191 345" fill-rule="evenodd"/>
<path d="M42.234 47.258H43.402L39.938 61.215 40.176 61.297C41.461 59.605 42.66 58.379 43.801 57.621 44.934 56.859 46.074 56.48 47.227 56.48 48.48 56.48 49.441 56.84 50.109 57.559 50.781 58.277 51.121 59.273 51.121 60.551 51.121 61.398 50.926 62.598 50.535 64.156L49.223 69.434C48.863 70.898 48.684 71.93 48.684 72.535 48.684 73.07 48.766 73.461 48.945 73.703 49.117 73.945 49.395 74.066 49.77 74.066 50.176 74.066 50.602 73.902 51.059 73.57 51.516 73.242 52.156 72.617 52.996 71.688L54.141 72.816C52.852 74.172 51.797 75.105 50.969 75.617 50.137 76.125 49.215 76.383 48.18 76.383 47.301 76.383 46.613 76.074 46.094 75.457 45.578 74.84 45.316 74.039 45.316 73.059 45.316 72.188 45.539 70.902 45.984 69.211L46.844 65.727C47.16 64.477 47.363 63.543 47.477 62.918 47.578 62.293 47.633 61.805 47.633 61.457 47.633 60.504 47.484 59.828 47.168 59.434 46.859 59.035 46.359 58.84 45.66 58.84 45.113 58.84 44.496 59.066 43.828 59.523 43.156 59.98 42.449 60.676 41.715 61.609 40.973 62.539 40.387 63.434 39.953 64.285 39.512 65.141 39.164 66.156 38.91 67.34L37.078 76.059H33.594L38.773 53.039C39.09 51.602 39.254 50.609 39.254 50.055 39.254 49.492 39.082 49.098 38.738 48.867 38.398 48.641 37.785 48.512 36.898 48.484L37.141 47.438ZM42.234 47.258" fill-rule="evenodd"/>
<path d="M59.852 69.527C60.57 69.527 61.133 69.762 61.523 70.234 61.922 70.711 62.113 71.332 62.113 72.102 62.113 72.543 62.047 72.934 61.914 73.277L62.113 73.363C63.105 72.047 64.066 71.074 64.996 70.457 65.934 69.836 66.887 69.527 67.875 69.527 68.242 69.527 68.594 69.547 68.926 69.586 69.246 69.625 69.562 69.672 69.871 69.73L69.121 73.277H67.418C67.371 72.688 67.246 72.27 67.051 72.016 66.848 71.762 66.555 71.633 66.172 71.633 65.949 71.625 65.691 71.691 65.398 71.84 65.109 71.988 64.793 72.195 64.469 72.469 64.141 72.742 63.816 73.066 63.496 73.438 63.172 73.809 62.863 74.215 62.578 74.652 62.289 75.09 62.039 75.559 61.824 76.051 61.613 76.543 61.449 77.039 61.344 77.539L59.852 84.48H56.977L59.176 74.93C59.309 74.363 59.406 73.895 59.461 73.523 59.512 73.152 59.543 72.84 59.543 72.586 59.543 71.875 59.25 71.52 58.672 71.52 58.492 71.52 58.305 71.555 58.125 71.629 57.945 71.699 57.758 71.809 57.562 71.957 57.367 72.102 57.148 72.289 56.918 72.516 56.684 72.738 56.422 73.004 56.129 73.305L55.117 72.352C55.605 71.855 56.047 71.426 56.453 71.07 56.863 70.715 57.246 70.422 57.621 70.191 57.988 69.961 58.359 69.793 58.719 69.688 59.078 69.578 59.461 69.527 59.852 69.527ZM59.852 69.527" fill-rule="evenodd"/>
<path transform="matrix(1,0,0,-1,0,0)" stroke-width="1.718753" stroke-linecap="butt" stroke-miterlimit="8" stroke-linejoin="miter" fill="none" stroke="#000000" d="M.75-318.578 67.004-318"/>
<path transform="matrix(1,0,0,-1,0,0)" stroke-width="1.718753" stroke-linecap="butt" stroke-miterlimit="8" stroke-linejoin="miter" fill="none" stroke="#000000" d="M.75-331.043V-307.504"/>
<path transform="matrix(1,0,0,-1,0,0)" stroke-width="1.718753" stroke-linecap="butt" stroke-miterlimit="8" stroke-linejoin="miter" fill="none" stroke="#000000" d="M67.5-332.543V-309.004"/>
<path stroke-width="1.718753" stroke-linecap="butt" stroke-miterlimit="8" stroke-linejoin="miter" fill="none" stroke="#000000" d="M49.5 96H68.984"/>
<path transform="matrix(1,0,0,-1,0,0)" stroke-width="1.718753" stroke-linecap="butt" stroke-miterlimit="8" stroke-linejoin="miter" fill="none" stroke="#000000" d="M48.75-109.793V-86.254"/>
<path transform="matrix(1,0,0,-1,0,0)" stroke-width="1.718753" stroke-linecap="butt" stroke-miterlimit="8" stroke-linejoin="miter" fill="none" stroke="#000000" d="M66.75-108.293V-84.754"/>
</g>
</svg>
