<svg xmlns="http://www.w3.org/2000/svg" xmlns:xlink="http://www.w3.org/1999/xlink" version="1.1" width="499.5pt" height="446.25pt" viewBox="-3 -3 505 452"><g id="deeditor_bgCarrier" stroke-width="0">
    <rect id="dee_c_e" x="-3" y="-3" width="505" height="452" rx="0" fill="#ffffff" strokewidth="0"/>
  </g>
<g>
<path d="M123.109 428.227V58.438H121.391V428.227ZM132.562 61.875 122.25 41.25 111.938 61.875ZM132.562 61.875" fill="#000000"/>
<path d="M122.258 428.832 453.574 426.246 453.562 424.527 122.242 427.113ZM450.215 435.727 470.758 425.254 450.051 415.102ZM450.215 435.727" fill="#000000"/>
<path stroke-width="3.437498" stroke-linecap="butt" stroke-miterlimit="8" stroke-linejoin="miter" fill="none" stroke="#000000" d="M194.625 118.125H391.125V362.625H194.625Z"/>
<path stroke-width="1.718753" stroke-linecap="butt" stroke-dasharray="1.718753,1.718753" stroke-miterlimit="8" stroke-linejoin="miter" fill="none" stroke="#767171" d="M130.5 117.75H194.086"/>
<path stroke-width="1.718753" stroke-linecap="butt" stroke-dasharray="1.718753,1.718753" stroke-miterlimit="8" stroke-linejoin="miter" fill="none" stroke="#767171" d="M128.25 362.25H191.836"/>
<path d="M.75 116.25H122.25V360.75H.75Z" fill="#767171" fill-opacity=".501961"/>
<path stroke-width="1.718753" stroke-linecap="butt" stroke-miterlimit="8" stroke-linejoin="miter" fill="none" stroke="#000000" d="M2.25 376.5H121.906"/>
<path transform="matrix(1,0,0,-1,0,0)" stroke-width="1.718753" stroke-linecap="butt" stroke-miterlimit="8" stroke-linejoin="miter" fill="none" stroke="#000000" d="M.75-389.543V-366.004"/>
<path transform="matrix(1,0,0,-1,0,0)" stroke-width="1.718753" stroke-linecap="butt" stroke-miterlimit="8" stroke-linejoin="miter" fill="none" stroke="#000000" d="M120-390.293V-366.754"/>
<path d="M60.066 399.465H61.238L57.773 413.43 58.012 413.504C59.297 411.816 60.496 410.586 61.637 409.828 62.766 409.074 63.906 408.691 65.062 408.691 66.316 408.691 67.273 409.051 67.941 409.77 68.617 410.488 68.953 411.488 68.953 412.762 68.953 413.609 68.762 414.809 68.371 416.371L67.059 421.641C66.699 423.105 66.516 424.141 66.516 424.746 66.516 425.281 66.602 425.672 66.781 425.918 66.953 426.156 67.23 426.277 67.605 426.277 68.012 426.277 68.438 426.113 68.895 425.781 69.352 425.453 69.988 424.828 70.824 423.898L71.977 425.023C70.688 426.383 69.629 427.32 68.805 427.828 67.973 428.34 67.043 428.594 66.016 428.594 65.137 428.594 64.449 428.289 63.93 427.664 63.414 427.051 63.148 426.246 63.148 425.273 63.148 424.395 63.375 423.113 63.816 421.426L64.68 417.938C64.996 416.691 65.199 415.754 65.309 415.125 65.414 414.504 65.469 414.016 65.469 413.672 65.469 412.719 65.316 412.043 65.004 411.645 64.695 411.246 64.191 411.051 63.496 411.051 62.949 411.051 62.332 411.277 61.664 411.734 60.988 412.191 60.285 412.891 59.551 413.82 58.809 414.75 58.223 415.641 57.789 416.496 57.344 417.352 57 418.363 56.746 419.551L54.914 428.273H51.426L56.602 405.246C56.926 403.816 57.09 402.816 57.09 402.27 57.09 401.707 56.918 401.309 56.574 401.078 56.234 400.852 55.621 400.727 54.734 400.695L54.977 399.652ZM60.066 399.465" fill-rule="evenodd" fill="#000000"/>
<path d="M60.691 391.336H63.391L70.441 396.426 69.652 397.574 62.266 393.93H62.039L54.488 397.574 53.699 396.426ZM60.691 391.336" fill-rule="evenodd" fill="#000000"/>
<path d="M98.926 24.375C97.328 24.375 95.902 25.02 94.637 26.309 93.367 27.598 92.371 29.336 91.648 31.523 90.922 33.711 90.555 35.891 90.555 38.062 90.555 39.688 90.781 40.902 91.223 41.707 91.672 42.512 92.414 42.914 93.465 42.914 93.945 42.914 94.441 42.809 94.941 42.598 95.438 42.387 95.961 42.047 96.496 41.578 97.035 41.109 97.566 40.539 98.094 39.867 98.617 39.195 99.098 38.52 99.531 37.84 99.977 37.16 100.379 36.355 100.754 35.426 101.129 34.496 101.445 33.375 101.715 32.062L101.926 31.055C102.156 29.93 102.277 28.867 102.277 27.867 102.277 26.648 102.016 25.762 101.504 25.207 100.988 24.652 100.125 24.375 98.926 24.375ZM98.504 22.523C99.473 22.523 100.395 22.637 101.266 22.863 102.141 23.09 103.051 23.492 103.988 24.07L106.141 22.523 107.641 22.898 101.641 49.547C101.379 50.734 101.242 51.625 101.242 52.219 101.242 52.906 101.422 53.395 101.773 53.684 102.121 53.973 102.816 54.164 103.844 54.258L103.637 55.406H96.324L100.359 40.031 100.027 39.891C98.684 41.781 97.312 43.219 95.91 44.203 94.516 45.188 93.148 45.68 91.824 45.68 90.105 45.68 88.77 45.031 87.824 43.734 86.879 42.438 86.406 40.617 86.406 38.273 86.406 35.586 86.934 33.004 87.988 30.527 89.047 28.051 90.496 26.098 92.34 24.668 94.184 23.238 96.238 22.523 98.504 22.523ZM98.504 22.523" fill-rule="evenodd" fill="#000000"/>
<path stroke-width="1.718753" stroke-linecap="butt" stroke-dasharray="13.749975,5.15625" stroke-miterlimit="8" stroke-linejoin="miter" fill="none" stroke="#c00000" d="M121.5 186H450.48"/>
<path d="M484.117 181.875C483.324 181.875 482.535 182.145 481.762 182.684 480.988 183.227 480.141 184.086 479.219 185.273 478.297 186.465 477.578 187.637 477.066 188.789 476.551 189.945 476.145 191.273 475.844 192.773L475.656 193.762C475.5 194.586 475.402 195.219 475.363 195.66 475.328 196.094 475.305 196.523 475.305 196.949 475.305 198.164 475.566 199.051 476.094 199.605 476.617 200.16 477.516 200.438 478.801 200.438 479.594 200.438 480.328 200.281 481.004 199.973 481.672 199.656 482.309 199.207 482.91 198.609 483.516 198.016 484.059 197.297 484.547 196.453 485.023 195.609 485.461 194.633 485.844 193.516 486.227 192.398 486.516 191.25 486.711 190.066 486.906 188.887 487.004 187.785 487.004 186.75 487.004 185.109 486.773 183.887 486.316 183.082 485.852 182.281 485.121 181.875 484.117 181.875ZM474.254 179.109C475.223 179.109 475.988 179.43 476.566 180.074 477.137 180.711 477.422 181.566 477.422 182.625 477.422 183.504 477.238 184.426 476.879 185.391L477.156 185.484C480.051 181.254 482.926 179.137 485.781 179.137 487.484 179.137 488.812 179.781 489.758 181.078 490.703 182.379 491.176 184.207 491.176 186.562 491.176 189.141 490.656 191.676 489.613 194.168 488.578 196.664 487.133 198.637 485.297 200.102 483.449 201.562 481.387 202.289 479.109 202.289 477.023 202.289 475.297 201.84 473.926 200.934L472.844 206.062C472.613 207.172 472.492 208.086 472.492 208.809 472.492 209.496 472.672 209.984 473.023 210.27 473.379 210.562 474.059 210.75 475.074 210.848L474.887 211.996H467.641L473.297 187.125C473.617 185.691 473.781 184.508 473.781 183.586 473.781 182.961 473.684 182.512 473.484 182.227 473.273 181.949 472.957 181.809 472.516 181.809 472.035 181.809 471.523 182.004 470.984 182.406 470.445 182.805 469.703 183.523 468.766 184.574L467.43 183.262C468.84 181.793 470.031 180.734 471.008 180.082 471.984 179.438 473.062 179.109 474.254 179.109ZM474.254 179.109" fill-rule="evenodd" fill="#000000"/>
</g>
</svg>