<svg xmlns="http://www.w3.org/2000/svg" xmlns:xlink="http://www.w3.org/1999/xlink" version="1.1" width="418.5pt" height="467.25pt" viewBox="-3 -3 424 473"><g id="deeditor_bgCarrier" stroke-width="0">
    <rect id="dee_c_e" x="-3" y="-3" width="424" height="473" rx="0" fill="#ffffff" strokewidth="0"/>
  </g>
<g>
<path d="M115.547 425.309H116.738L111.781 447.609C111.484 448.941 111.34 449.934 111.34 450.594 111.34 451.125 111.426 451.516 111.602 451.762 111.773 452.004 112.051 452.121 112.426 452.121 112.828 452.121 113.258 451.957 113.715 451.629 114.172 451.297 114.816 450.676 115.648 449.746L116.797 450.871C115.492 452.242 114.43 453.18 113.605 453.684 112.777 454.184 111.855 454.441 110.836 454.441 109.961 454.441 109.266 454.117 108.742 453.48 108.215 452.844 107.953 452.023 107.953 451.035 107.953 450.137 108.141 448.828 108.52 447.129L112.125 430.996C112.285 430.281 112.398 429.711 112.465 429.293 112.535 428.863 112.566 428.477 112.566 428.113 112.566 427.711 112.492 427.402 112.344 427.199 112.199 426.988 111.984 426.84 111.711 426.742 111.438 426.652 110.941 426.586 110.23 426.539L110.473 425.496ZM115.547 425.309" fill-rule="evenodd" fill="#000000"/>
<path d="M126.992 443.672H127.883C127.867 444.211 127.852 444.691 127.84 445.109 127.832 445.539 127.824 445.949 127.82 446.348 127.812 446.754 127.812 447.148 127.812 447.539V458.672C127.812 458.969 127.82 459.234 127.84 459.457 127.859 459.676 127.891 459.863 127.938 460.012 127.98 460.164 128.039 460.289 128.109 460.402 128.184 460.508 128.27 460.598 128.367 460.68 128.484 460.793 128.641 460.883 128.836 460.949 129.031 461.012 129.281 461.062 129.582 461.109 129.887 461.152 130.25 461.191 130.676 461.211 131.102 461.234 131.609 461.25 132.207 461.266V462.539H120.59V461.266C121.164 461.242 121.652 461.219 122.055 461.199 122.453 461.176 122.797 461.137 123.078 461.094 123.363 461.047 123.59 461.004 123.762 460.949 123.93 460.898 124.082 460.828 124.207 460.746 124.344 460.664 124.461 460.566 124.559 460.461 124.656 460.363 124.734 460.23 124.793 460.078 124.852 459.922 124.898 459.727 124.934 459.504 124.969 459.277 124.984 459 124.984 458.672V448.172C124.984 447.789 124.91 447.516 124.766 447.359 124.617 447.203 124.406 447.129 124.133 447.129 123.832 447.129 123.383 447.285 122.785 447.594 122.191 447.906 121.418 448.371 120.473 448.988 120.348 448.762 120.227 448.539 120.121 448.312 120.012 448.086 119.902 447.863 119.785 447.621 120.996 446.961 122.195 446.301 123.379 445.641 124.566 444.984 125.77 444.324 126.992 443.672ZM126.992 443.672" fill-rule="evenodd" fill="#000000"/>
<path d="M49.609 407.977V38.188H47.891V407.977ZM59.062 41.625 48.75 21 38.438 41.625ZM59.062 41.625" fill="#000000"/>
<path d="M48.758 409.332 380.074 406.746 380.062 405.027 48.742 407.613ZM376.715 416.227 397.258 405.754 376.551 395.602ZM376.715 416.227" fill="#000000"/>
<path stroke-width="3.437498" stroke-linecap="butt" stroke-miterlimit="8" stroke-linejoin="miter" fill="none" stroke="#000000" d="M121.125 97.875H318.375V342.375H121.125Z"/>
<path d="M307.148 436.492C307.996 436.492 308.664 436.77 309.148 437.332 309.645 437.887 309.887 438.613 309.887 439.516 309.887 440.184 309.758 440.879 309.504 441.594L309.766 441.691C311.086 439.906 312.344 438.594 313.566 437.762 314.781 436.926 316.012 436.516 317.258 436.516 318.238 436.516 319.059 436.59 319.719 436.734L318.75 441.246H316.672C316.598 440.684 316.477 440.242 316.336 439.934 316.184 439.629 316.012 439.418 315.809 439.289 315.609 439.172 315.352 439.109 315.047 439.109 314.559 439.109 314.031 439.32 313.461 439.734 312.891 440.152 312.246 440.805 311.543 441.691 310.828 442.574 310.262 443.43 309.84 444.246 309.414 445.066 309.059 446.109 308.781 447.367L306.871 456.09H303.383L306.301 443.316C306.488 442.516 306.613 441.891 306.668 441.449 306.719 441.008 306.742 440.633 306.742 440.34 306.742 439.801 306.66 439.418 306.488 439.172 306.309 438.93 306.039 438.809 305.656 438.809 305.242 438.809 304.801 438.984 304.344 439.32 303.879 439.664 303.238 440.289 302.438 441.188L301.289 440.055C302.52 438.773 303.555 437.852 304.387 437.309 305.219 436.762 306.141 436.492 307.148 436.492ZM307.148 436.492" fill-rule="evenodd" fill="#000000"/>
<path d="M324.977 445.641H325.867C325.852 446.184 325.836 446.664 325.828 447.09 325.816 447.512 325.809 447.922 325.809 448.328 325.801 448.727 325.801 449.121 325.801 449.512V460.641C325.801 460.949 325.809 461.211 325.828 461.43 325.844 461.648 325.875 461.836 325.922 461.984 325.965 462.137 326.023 462.27 326.102 462.375 326.176 462.48 326.258 462.578 326.355 462.652 326.477 462.773 326.625 462.863 326.82 462.922 327.016 462.988 327.27 463.043 327.57 463.086 327.871 463.125 328.238 463.164 328.664 463.184 329.086 463.215 329.594 463.23 330.195 463.238V464.512H318.578V463.238C319.156 463.223 319.641 463.199 320.039 463.172 320.445 463.148 320.781 463.117 321.066 463.074 321.352 463.027 321.578 462.977 321.75 462.922 321.914 462.871 322.066 462.801 322.191 462.727 322.328 462.637 322.449 462.539 322.547 462.441 322.641 462.336 322.727 462.211 322.777 462.051 322.836 461.895 322.883 461.707 322.922 461.484 322.949 461.258 322.973 460.98 322.973 460.641V450.141C322.973 449.762 322.898 449.488 322.746 449.34 322.605 449.184 322.395 449.102 322.117 449.102 321.816 449.102 321.367 449.258 320.773 449.574 320.176 449.887 319.41 450.344 318.457 450.961 318.328 450.734 318.219 450.516 318.105 450.293 318 450.066 317.887 449.836 317.766 449.602 318.984 448.934 320.184 448.273 321.367 447.613 322.551 446.953 323.762 446.301 324.977 445.641ZM324.977 445.641" fill-rule="evenodd" fill="#000000"/>
<path stroke-width="1.718753" stroke-linecap="butt" stroke-dasharray="1.718753,1.718753" stroke-miterlimit="8" stroke-linejoin="miter" fill="none" stroke="#767171" d="M57 97.5H120.586"/>
<path stroke-width="1.718753" stroke-linecap="butt" stroke-dasharray="1.718753,1.718753" stroke-miterlimit="8" stroke-linejoin="miter" fill="none" stroke="#767171" d="M55.5 342H119.086"/>
<path transform="matrix(1,0,0,-1,0,0)" stroke-width="1.718753" stroke-linecap="butt" stroke-dasharray="1.718753,1.718753" stroke-miterlimit="8" stroke-linejoin="miter" fill="none" stroke="#767171" d="M121.5-408.375V-346.5"/>
<path transform="matrix(1,0,0,-1,0,0)" stroke-width="1.718753" stroke-linecap="butt" stroke-dasharray="1.718753,1.718753" stroke-miterlimit="8" stroke-linejoin="miter" fill="none" stroke="#767171" d="M318-406.875V-345"/>
<path d="M15.199 327.516H16.391L11.434 349.816C11.141 351.141 10.992 352.141 10.992 352.793 10.992 353.332 11.078 353.723 11.254 353.961 11.43 354.203 11.703 354.324 12.078 354.324 12.48 354.324 12.91 354.156 13.367 353.836 13.824 353.504 14.469 352.875 15.301 351.945L16.449 353.078C15.148 354.441 14.082 355.379 13.258 355.891 12.434 356.391 11.508 356.641 10.488 356.641 9.613 356.641 8.918 356.324 8.395 355.688 7.871 355.051 7.609 354.234 7.609 353.234 7.609 352.336 7.797 351.039 8.172 349.328L11.777 333.195C11.938 332.484 12.051 331.922 12.121 331.492 12.188 331.074 12.219 330.684 12.219 330.316 12.219 329.91 12.145 329.609 12 329.398 11.852 329.191 11.641 329.039 11.363 328.949 11.09 328.852 10.594 328.785 9.883 328.746L10.125 327.699ZM15.199 327.516" fill-rule="evenodd" fill="#000000"/>
<path d="M26.465 345.773C27.48 345.773 28.348 345.887 29.062 346.117 29.781 346.344 30.367 346.656 30.816 347.047 31.266 347.438 31.59 347.902 31.789 348.449 31.988 348.996 32.09 349.59 32.09 350.227 32.09 350.602 32.062 350.961 32.008 351.285 31.953 351.613 31.863 351.938 31.73 352.254 31.598 352.566 31.426 352.891 31.211 353.211 30.996 353.535 30.727 353.879 30.402 354.238 30.16 354.547 29.844 354.914 29.453 355.32 29.062 355.734 28.633 356.176 28.172 356.641 27.707 357.113 27.219 357.602 26.711 358.102 26.203 358.613 25.711 359.113 25.234 359.617 24.754 360.113 24.316 360.594 23.914 361.066 23.516 361.531 23.188 361.965 22.934 362.355H28.355C28.812 362.355 29.18 362.34 29.453 362.301 29.727 362.266 29.953 362.191 30.133 362.078 30.312 361.957 30.469 361.777 30.594 361.539 30.723 361.297 30.867 360.977 31.035 360.555H32.395C32.348 361.246 32.301 361.941 32.258 362.648 32.215 363.352 32.168 364.051 32.117 364.738H19.711V363.984C19.945 363.449 20.219 362.934 20.531 362.422 20.844 361.906 21.195 361.387 21.586 360.863 21.977 360.328 22.422 359.789 22.918 359.227 23.418 358.664 23.969 358.078 24.574 357.473 25.492 356.559 26.238 355.777 26.816 355.125 27.391 354.473 27.848 353.895 28.176 353.387 28.508 352.883 28.738 352.41 28.859 351.984 28.98 351.555 29.043 351.09 29.043 350.602 29.043 350.109 28.973 349.648 28.828 349.23 28.688 348.809 28.484 348.449 28.223 348.156 27.957 347.863 27.625 347.641 27.219 347.469 26.812 347.301 26.348 347.219 25.82 347.219 24.91 347.219 24.148 347.469 23.535 347.961 22.918 348.457 22.441 349.172 22.098 350.109H20.18V347.25C21.43 346.734 22.578 346.359 23.629 346.125 24.68 345.887 25.625 345.773 26.465 345.773ZM26.465 345.773" fill-rule="evenodd" fill="#000000"/>
<path d="M10.82 92.184C11.668 92.184 12.336 92.461 12.824 93.02 13.316 93.574 13.559 94.305 13.559 95.203 13.559 95.875 13.434 96.566 13.176 97.277L13.438 97.379C14.754 95.594 16.02 94.285 17.234 93.449 18.449 92.617 19.684 92.203 20.934 92.203 21.91 92.203 22.73 92.277 23.391 92.426L22.422 96.934H20.348C20.266 96.371 20.152 95.934 20.004 95.625 19.859 95.316 19.684 95.102 19.48 94.98 19.281 94.859 19.023 94.801 18.715 94.801 18.234 94.801 17.707 95.008 17.137 95.426 16.566 95.84 15.922 96.492 15.211 97.379 14.5 98.266 13.934 99.117 13.508 99.938 13.086 100.754 12.734 101.797 12.453 103.059L10.539 111.781H7.055L9.977 99.008C10.164 98.203 10.285 97.582 10.336 97.137 10.391 96.695 10.418 96.324 10.418 96.027 10.418 95.492 10.332 95.102 10.156 94.859 9.98 94.621 9.707 94.5 9.328 94.5 8.914 94.5 8.473 94.668 8.012 95.012 7.547 95.355 6.914 95.977 6.105 96.875L4.961 95.746C6.195 94.457 7.227 93.543 8.062 92.996 8.895 92.453 9.812 92.184 10.82 92.184ZM10.82 92.184" fill-rule="evenodd" fill="#000000"/>
<path d="M28.469 101.23C29.484 101.23 30.352 101.348 31.07 101.578 31.789 101.805 32.371 102.113 32.82 102.512 33.27 102.898 33.594 103.363 33.793 103.914 33.996 104.461 34.094 105.051 34.094 105.684 34.094 106.066 34.066 106.418 34.016 106.746 33.961 107.078 33.867 107.398 33.734 107.715 33.605 108.031 33.43 108.352 33.215 108.676 33 108.996 32.73 109.336 32.41 109.703 32.164 110.012 31.848 110.371 31.457 110.781 31.066 111.195 30.641 111.629 30.176 112.102 29.711 112.566 29.227 113.055 28.719 113.566 28.211 114.074 27.719 114.578 27.238 115.074 26.762 115.574 26.32 116.055 25.922 116.527 25.52 116.992 25.191 117.422 24.938 117.816H30.359C30.816 117.816 31.184 117.797 31.457 117.766 31.73 117.727 31.957 117.652 32.141 117.531 32.32 117.422 32.473 117.238 32.602 117 32.727 116.762 32.875 116.43 33.039 116.012H34.402C34.352 116.707 34.305 117.406 34.262 118.109 34.219 118.809 34.172 119.504 34.125 120.203H21.715V119.438C21.949 118.914 22.223 118.395 22.535 117.879 22.848 117.367 23.203 116.852 23.59 116.316 23.98 115.793 24.426 115.246 24.926 114.691 25.422 114.129 25.973 113.543 26.578 112.934 27.496 112.02 28.246 111.234 28.82 110.586 29.398 109.934 29.852 109.359 30.184 108.848 30.516 108.344 30.742 107.871 30.863 107.445 30.984 107.012 31.047 106.551 31.047 106.066 31.047 105.57 30.977 105.113 30.836 104.691 30.695 104.273 30.492 103.914 30.227 103.621 29.965 103.328 29.629 103.094 29.223 102.93 28.82 102.766 28.352 102.684 27.824 102.684 26.918 102.684 26.156 102.93 25.539 103.426 24.926 103.914 24.445 104.633 24.105 105.57H22.184V102.711C23.434 102.195 24.586 101.816 25.637 101.582 26.684 101.348 27.629 101.23 28.469 101.23ZM28.469 101.23" fill-rule="evenodd" fill="#000000"/>
<path d="M220.641 202.004 216.781 219.457C218.707 219.879 220.418 220.094 221.918 220.094 224.391 220.094 226.414 219.629 227.996 218.707 229.578 217.785 230.723 216.555 231.434 215.016 232.141 213.48 232.496 211.746 232.496 209.82 232.496 207.285 231.664 205.352 230.004 204.016 228.34 202.672 225.422 202.004 221.25 202.004ZM218.879 198.629H220.488C223.754 198.629 226.371 198.789 228.348 199.102 230.32 199.418 232.055 199.988 233.543 200.805 235.035 201.629 236.16 202.719 236.918 204.074 237.68 205.434 238.059 207.023 238.059 208.844 238.059 210.344 237.82 211.754 237.344 213.066 236.867 214.387 236.203 215.602 235.352 216.719 234.5 217.828 233.465 218.828 232.238 219.711 231.012 220.598 229.801 221.266 228.605 221.738 227.836 222.016 226.891 222.262 225.777 222.465 226.367 224.25 227.051 226.172 227.828 228.238 228.609 230.301 229.238 231.84 229.715 232.844 230.191 233.852 230.625 234.66 231.02 235.273 231.418 235.891 231.816 236.34 232.223 236.609 232.629 236.887 233.094 237.023 233.621 237.023 234.473 237.023 235.23 236.797 235.898 236.355 236.57 235.906 237.562 234.984 238.879 233.586L240.672 235.199C239.09 237.105 237.57 238.516 236.113 239.422 234.652 240.336 232.992 240.797 231.129 240.797 229.953 240.797 228.953 240.594 228.133 240.203 227.312 239.805 226.625 239.266 226.066 238.59 225.508 237.906 225.008 237.047 224.562 236.004 224.117 234.961 223.469 233.234 222.617 230.82 221.766 228.414 220.914 225.789 220.062 222.953 218.848 222.953 217.512 222.855 216.051 222.676L214.652 229.664C214.348 231.227 213.98 232.523 213.543 233.559 213.109 234.594 212.629 235.461 212.102 236.176 211.574 236.879 211 237.488 210.383 237.996 209.766 238.5 208.996 238.996 208.074 239.484 207.152 239.969 206.25 240.309 205.367 240.504 204.484 240.699 203.57 240.797 202.617 240.797 201.078 240.797 199.699 240.359 198.484 239.496 197.266 238.637 196.184 237.328 195.23 235.559L199.363 233.191C200.215 234.879 201.035 236.113 201.828 236.918 202.617 237.719 203.488 238.117 204.441 238.117 204.926 238.117 205.414 238.02 205.898 237.824 206.387 237.637 206.828 237.254 207.223 236.684 207.617 236.121 207.961 235.32 208.254 234.285 208.547 233.25 208.938 231.586 209.426 229.273L213.348 210.309C213.648 208.891 214.07 207.48 214.609 206.094 215.145 204.703 215.777 203.469 216.508 202.371L216.445 202.066C211.926 202.066 208.691 202.484 206.734 203.316 204.781 204.141 203.801 205.559 203.801 207.57 203.801 208.605 204.156 209.859 204.867 211.336L200.184 213.164C199.738 212.43 199.418 211.746 199.227 211.109 199.035 210.473 198.938 209.766 198.938 208.996 198.938 208.125 199.191 207.254 199.699 206.387 200.328 205.312 201.352 204.211 202.77 203.086 204.188 201.961 205.652 201.059 207.16 200.379 208.672 199.703 210.359 199.23 212.223 198.969 213.723 198.742 215.941 198.629 218.879 198.629ZM218.879 198.629" fill-rule="evenodd" fill="#000000"/>
</g>
</svg>